{
  "accessors": [
    {
      "bufferView": 2,
      "componentType": 5126,
      "count": 9900,
      "max": [
        0.4999370574951172,
        0.4999370574951172,
        0.5
      ],
      "min": [
        -0.4999370574951172,
        -0.4999370574951172,
        -0.5
      ],
      "type": "VEC3"
    },
    {
      "bufferView": 2,
      "byteOffset": 118800,
      "componentType": 5126,
      "count": 9900,
      "max": [
        0.9994507431983948,
        0.9998741745948792,
        1.0
      ],
      "min": [
        -0.9998741745948792,
        -0.9998741745948792,
        -1.0
      ],
      "type": "VEC3"
    },
    {
      "bufferView": 1,
      "componentType": 5126,
      "count": 9900,
      "max": [
        0.9999999403953552,
        0.9979794025421143
      ],
      "min": [
        2.7866528398590162e-05,
        0.0020205997861921787
      ],
      "type": "VEC2"
    },
    {
      "bufferView": 0,
      "componentType": 5125,
      "count": 58800,
      "type": "SCALAR"
    },
    {
      "bufferView": 2,
      "byteOffset": 237600,
      "componentType": 5126,
      "count": 9900,
      "max": [
        5.099987506866455,
        0.5999873876571655,
        -1.399999976158142
      ],
      "min": [
        4.900012493133545,
        0.4000125825405121,
        -1.600000023841858
      ],
      "type": "VEC3"
    },
    {
      "bufferView": 2,
      "byteOffset": 356400,
      "componentType": 5126,
      "count": 9900,
      "max": [
        0.999450147151947,
        0.9998741745948792,
        1.0
      ],
      "min": [
        -0.9998741745948792,
        -0.9998741745948792,
        -1.0
      ],
      "type": "VEC3"
    },
    {
      "bufferView": 1,
      "byteOffset": 79200,
      "componentType": 5126,
      "count": 9900,
      "max": [
        0.9999999403953552,
        0.9979794025421143
      ],
      "min": [
        2.7819689421448857e-05,
        0.0020206011831760406
      ],
      "type": "VEC2"
    },
    {
      "bufferView": 0,
      "byteOffset": 235200,
      "componentType": 5125,
      "count": 58800,
      "type": "SCALAR"
    },
    {
      "bufferView": 2,
      "byteOffset": 475200,
      "componentType": 5126,
      "count": 4878,
      "max": [
        0.5021851062774658,
        0.47729411721229553,
        0.5022333264350891
      ],
      "min": [
        -0.48699474334716797,
        -0.4962383508682251,
        -0.5029882788658142
      ],
      "type": "VEC3"
    },
    {
      "bufferView": 2,
      "byteOffset": 533736,
      "componentType": 5126,
      "count": 4878,
      "max": [
        0.7071089148521423,
        0.7071089148521423,
        1.0
      ],
      "min": [
        -0.7071089148521423,
        -0.7071089148521423,
        -1.0
      ],
      "type": "VEC3"
    },
    {
      "bufferView": 0,
      "byteOffset": 470400,
      "componentType": 5125,
      "count": 13008,
      "type": "SCALAR"
    },
    {
      "bufferView": 2,
      "byteOffset": 592272,
      "componentType": 5126,
      "count": 13284,
      "max": [
        0.5002651214599609,
        0.501257061958313,
        0.5003133416175842
      ],
      "min": [
        -0.5002678632736206,
        -0.5002692341804504,
        -0.5010682344436646
      ],
      "type": "VEC3"
    },
    {
      "bufferView": 2,
      "byteOffset": 751680,
      "componentType": 5126,
      "count": 13284,
      "max": [
        0.7071107625961304,
        0.7071087956428528,
        1.0
      ],
      "min": [
        -0.7071087956428528,
        -0.7071087956428528,
        -1.0
      ],
      "type": "VEC3"
    },
    {
      "bufferView": 0,
      "byteOffset": 522432,
      "componentType": 5125,
      "count": 35424,
      "type": "SCALAR"
    },
    {
      "bufferView": 2,
      "byteOffset": 911088,
      "componentType": 5126,
      "count": 5994,
      "max": [
        0.5005651116371155,
        0.4756741225719452,
        0.5006133317947388
      ],
      "min": [
        -0.4975614547729492,
        -0.49461835622787476,
        -0.5013682842254639
      ],
      "type": "VEC3"
    },
    {
      "bufferView": 2,
      "byteOffset": 983016,
      "componentType": 5126,
      "count": 5994,
      "max": [
        0.7071121335029602,
        0.7071120738983154,
        1.0
      ],
      "min": [
        -0.7071120738983154,
        -0.7071120738983154,
        -1.0
      ],
      "type": "VEC3"
    },
    {
      "bufferView": 0,
      "byteOffset": 664128,
      "componentType": 5125,
      "count": 15984,
      "type": "SCALAR"
    },
    {
      "bufferView": 2,
      "byteOffset": 1054944,
      "componentType": 5126,
      "count": 4878,
      "max": [
        0.5005651116371155,
        0.4756741225719452,
        0.5006133317947388
      ],
      "min": [
        -0.4853747487068176,
        -0.49461835622787476,
        -0.5013682842254639
      ],
      "type": "VEC3"
    },
    {
      "bufferView": 2,
      "byteOffset": 1113480,
      "componentType": 5126,
      "count": 4878,
      "max": [
        0.7071121335029602,
        0.7071120738983154,
        1.0
      ],
      "min": [
        -0.7071120738983154,
        -0.7071120738983154,
        -1.0
      ],
      "type": "VEC3"
    },
    {
      "bufferView": 1,
      "byteOffset": 158400,
      "componentType": 5126,
      "count": 4878,
      "max": [
        0.9999998807907104,
        0.9885943531990051
      ],
      "min": [
        2.7886875614058226e-05,
        0.020302770659327507
      ],
      "type": "VEC2"
    },
    {
      "bufferView": 0,
      "byteOffset": 728064,
      "componentType": 5125,
      "count": 13008,
      "type": "SCALAR"
    }
  ],
  "asset": {
    "extras": {
      "author": "federico_unipa (https://sketchfab.com/federico_unipa)",
      "license": "CC-BY-4.0 (http://creativecommons.org/licenses/by/4.0/)",
      "source": "https://sketchfab.com/3d-models/satellites-and-space-debris-around-the-earth-f6b3b5fd88e442cc9d5013a8f3ff6295",
      "title": "Satellites and space debris around the Earth"
    },
    "generator": "Sketchfab-15.37.0",
    "version": "2.0"
  },
  "bufferViews": [
    {
      "buffer": 0,
      "byteLength": 780096,
      "name": "floatBufferViews",
      "target": 34963
    },
    {
      "buffer": 0,
      "byteLength": 197424,
      "byteOffset": 780096,
      "byteStride": 8,
      "name": "floatBufferViews",
      "target": 34962
    },
    {
      "buffer": 0,
      "byteLength": 1172016,
      "byteOffset": 977520,
      "byteStride": 12,
      "name": "floatBufferViews",
      "target": 34962
    }
  ],
  "buffers": [
    {
      "byteLength": 2149536,
      "uri": "scene.bin"
    }
  ],
  "images": [
    {
      "uri": "textures/material_0_baseColor.png"
    },
    {
      "uri": "textures/material_1_baseColor.png"
    }
  ],
  "materials": [
    {
      "name": "material_0",
      "pbrMetallicRoughness": {
        "baseColorTexture": {
          "index": 0
        },
        "metallicFactor": 0.7466765268957943,
        "roughnessFactor": 0.933500562067725
      }
    },
    {
      "name": "material_1",
      "pbrMetallicRoughness": {
        "baseColorTexture": {
          "index": 1
        },
        "metallicFactor": 0.0
      }
    },
    {
      "name": "material_2",
      "pbrMetallicRoughness": {
        "metallicFactor": 0.0
      }
    },
    {
      "name": "material_3",
      "pbrMetallicRoughness": {
        "metallicFactor": 0.0
      }
    },
    {
      "name": "material_4",
      "pbrMetallicRoughness": {
        "metallicFactor": 0.0
      }
    },
    {
      "name": "material_5",
      "pbrMetallicRoughness": {
        "metallicFactor": 0.0
      }
    }
  ],
  "meshes": [
    {
      "name": "Object_0",
      "primitives": [
        {
          "attributes": {
            "NORMAL": 1,
            "POSITION": 0,
            "TEXCOORD_0": 2
          },
          "indices": 3,
          "material": 0,
          "mode": 4
        }
      ]
    },
    {
      "name": "Object_1",
      "primitives": [
        {
          "attributes": {
            "NORMAL": 5,
            "POSITION": 4,
            "TEXCOORD_0": 6
          },
          "indices": 7,
          "material": 1,
          "mode": 4
        }
      ]
    },
    {
      "name": "Object_2",
      "primitives": [
        {
          "attributes": {
            "NORMAL": 9,
            "POSITION": 8
          },
          "indices": 10,
          "material": 2,
          "mode": 4
        }
      ]
    },
    {
      "name": "Object_3",
      "primitives": [
        {
          "attributes": {
            "NORMAL": 12,
            "POSITION": 11
          },
          "indices": 13,
          "material": 3,
          "mode": 4
        }
      ]
    },
    {
      "name": "Object_4",
      "primitives": [
        {
          "attributes": {
            "NORMAL": 15,
            "POSITION": 14
          },
          "indices": 16,
          "material": 4,
          "mode": 4
        }
      ]
    },
    {
      "name": "Object_5",
      "primitives": [
        {
          "attributes": {
            "NORMAL": 18,
            "POSITION": 17,
            "TEXCOORD_0": 19
          },
          "indices": 20,
          "material": 5,
          "mode": 4
        }
      ]
    }
  ],
  "nodes": [
    {
      "children": [
        1
      ],
      "matrix": [
        78.35922241210938,
        0.0,
        0.0,
        0.0,
        0.0,
        78.35922241210938,
        3.479848516545897e-14,
        0.0,
        0.0,
        -3.479848516545897e-14,
        78.35922241210938,
        0.0,
        0.0,
        0.0,
        0.0,
        1.0
      ],
      "name": "Sketchfab_model"
    },
    {
      "children": [
        2
      ],
      "name": "root"
    },
    {
      "children": [
        3
      ],
      "matrix": [
        1.0,
        0.0,
        0.0,
        0.0,
        0.0,
        2.220446049250313e-16,
        1.0,
        0.0,
        0.0,
        -1.0,
        2.220446049250313e-16,
        0.0,
        0.0,
        0.0,
        0.0,
        1.0
      ],
      "name": "GLTF_SceneRootNode"
    },
    {
      "children": [
        4,
        6,
        8,
        10,
        12,
        14
      ],
      "name": "Renderer Node_7"
    },
    {
      "children": [
        5
      ],
      "name": "mesh0_0"
    },
    {
      "mesh": 0,
      "name": "Object_5"
    },
    {
      "children": [
        7
      ],
      "name": "mesh1_1"
    },
    {
      "mesh": 1,
      "name": "Object_7"
    },
    {
      "children": [
        9
      ],
      "matrix": [
        1.299597144126892,
        0.023080574348568916,
        -0.022684672847390175,
        0.0,
        -0.022684672847390175,
        1.299604058265686,
        0.022688128054142,
        0.0,
        0.023080574348568916,
        -0.022285254672169685,
        1.299604058265686,
        0.0,
        0.0,
        0.0,
        0.0,
        1.0
      ],
      "name": "mesh2_2"
    },
    {
      "mesh": 2,
      "name": "Object_9"
    },
    {
      "children": [
        11
      ],
      "matrix": [
        2.700000047683716,
        0.0,
        0.0,
        0.0,
        0.0,
        2.700000047683716,
        0.0,
        0.0,
        0.0,
        0.0,
        3.0,
        0.0,
        0.0,
        0.0,
        0.0,
        1.0
      ],
      "name": "mesh3_3"
    },
    {
      "mesh": 3,
      "name": "Object_11"
    },
    {
      "children": [
        13
      ],
      "matrix": [
        3.0,
        0.0,
        0.0,
        0.0,
        0.0,
        2.0,
        0.0,
        0.0,
        0.0,
        0.0,
        2.0,
        0.0,
        0.0,
        0.0,
        0.0,
        1.0
      ],
      "name": "mesh4_4"
    },
    {
      "mesh": 4,
      "name": "Object_13"
    },
    {
      "children": [
        15
      ],
      "matrix": [
        2.700000047683716,
        0.0,
        0.0,
        0.0,
        0.0,
        3.0,
        0.0,
        0.0,
        0.0,
        0.0,
        3.0,
        0.0,
        0.0,
        0.0,
        0.0,
        1.0
      ],
      "name": "mesh5_5"
    },
    {
      "mesh": 5,
      "name": "Object_15"
    }
  ],
  "samplers": [
    {
      "magFilter": 9728,
      "minFilter": 9728,
      "wrapS": 10497,
      "wrapT": 10497
    }
  ],
  "scene": 0,
  "scenes": [
    {
      "name": "Sketchfab_Scene",
      "nodes": [
        0
      ]
    }
  ],
  "textures": [
    {
      "sampler": 0,
      "source": 0
    },
    {
      "sampler": 0,
      "source": 1
    }
  ]
}
